{"title":"Ghost Whisperer - 122 - The One.avi","uid":4947993,"size":366268416,"categoryP":"video","categoryS":"tv_shows","magnet":"?xt=urn:btih:0b85924d15e8048e22eadff64fd6e3bbc52d675e&amp;dn=Ghost+Whisperer+-+122+-+The+One.avi&amp;tr=udp%3A%2F%2Ftracker.openbittorrent.com%3A80&amp;tr=udp%3A%2F%2Fopen.demonii.com%3A1337&amp;tr=udp%3A%2F%2Ftracker.coppersurfer.tk%3A6969&amp;tr=udp%3A%2F%2Fexodus.desync.com%3A6969","seeders":0,"leechers":1,"uploader":"xkissie","files":1,"time":1244747786,"description":"Melinda Gordon inherited her &quot;gift&quot; -- the ability to see and talk with the spirits of dead people -- from, and was coached it its use by her grandmother. Running an antique store in a small town, newly married to a paramedic, Melinda helps the ghosts wandering around who are trapped between worlds by helping them to resolve unfulfilled aspects of their former life.\n\n\nFormat                           : AVI\nFormat/Info                      : Audio Video Interleave\nFile size                        : 349 MiB\nDuration                         : 41mn 26s\nOverall bit rate                 : 1176 Kbps\nWriting application              : transcode-0.6.14\n\nVideo\nFormat                           : MPEG-4 Visual\nFormat profile                   : Streaming Video@L1\nFormat settings, BVOP            : Yes\nFormat settings, QPel            : No\nFormat settings, GMC             : No warppoints\nFormat settings, Matrix          : Default\nCodec ID                         : XVID\nCodec ID/Hint                    : XviD\nDuration                         : 41mn 26s\nBit rate                         : 1035 Kbps\nWidth                            : 624 pixels\nHeight                           : 352 pixels\nDisplay aspect ratio             : 16/9\nFrame rate                       : 23.976 fps\nResolution                       : 8 bits\nColorimetry                      : 4:2:0\nScan type                        : Progressive\nBits/(Pixel*Frame)               : 0.196\nStream size                      : 307 MiB (88%)\nWriting library                  : XviD 1.0.3 (UTC 2004-12-20)\n\nAudio\nFormat                           : MPEG Audio\nFormat version                   : Version 1\nFormat profile                   : Layer 3\nCodec ID                         : 55\nCodec ID/Hint                    : MP3\nDuration                         : 41mn 26s\nBit rate mode                    : Variable\nBit rate                         : 96.0 Kbps\nChannel(s)                       : 2 channels\nSampling rate                    : 48.0 KHz\nResolution                       : 16 bits\nStream size                      : 38.2 MiB (11%)\nAlignment                        : Aligned on interleaves\nInterleave, duration             : 24 ms (0.58 video frame)\n\t\t","torrent":{"xt":"urn:btih:0b85924d15e8048e22eadff64fd6e3bbc52d675e","amp;dn":"Ghost+Whisperer+-+122+-+The+One.avi","amp;tr":["udp%3A%2F%2Ftracker.openbittorrent.com%3A80","udp%3A%2F%2Fopen.demonii.com%3A1337","udp%3A%2F%2Ftracker.coppersurfer.tk%3A6969","udp%3A%2F%2Fexodus.desync.com%3A6969"],"infoHash":"0b85924d15e8048e22eadff64fd6e3bbc52d675e","infoHashBuffer":{"type":"Buffer","data":[11,133,146,77,21,232,4,142,34,234,223,246,79,214,227,187,197,45,103,94]},"announce":[],"urlList":[]}}